<svg id="svg" version="1.1" xmlns="http://www.w3.org/2000/svg" xmlns:xlink="http://www.w3.org/1999/xlink" width="400" height="224.89019033674964" viewBox="0, 0, 400,224.89019033674964"><g id="svgg"><path id="path0" d="M142.857 69.066 L 142.857 80.090 165.354 80.090 L 187.852 80.090 187.852 69.066 L 187.852 58.043 165.354 58.043 L 142.857 58.043 142.857 69.066 M157.255 63.436 L 157.255 64.555 154.049 64.617 L 150.844 64.679 150.778 66.310 L 150.711 67.942 153.096 67.942 L 155.480 67.942 155.412 69.010 L 155.343 70.079 153.093 70.191 L 150.844 70.304 150.844 72.216 L 150.844 74.128 154.049 74.191 L 157.255 74.253 157.255 75.484 L 157.255 76.715 152.756 76.715 L 148.256 76.715 148.256 69.516 L 148.256 62.317 152.756 62.317 L 157.255 62.317 157.255 63.436 M172.778 64.679 L 172.778 66.142 174.241 66.142 L 175.703 66.142 175.703 67.143 L 175.703 68.145 174.297 68.212 L 172.891 68.279 172.891 71.055 C 172.891 74.638,173.197 75.005,175.703 74.431 C 176.134 74.332,176.306 75.923,175.915 76.394 C 175.544 76.840,172.748 76.828,171.874 76.376 C 170.797 75.819,170.650 75.303,170.529 71.654 L 170.416 68.279 169.785 68.207 C 168.836 68.098,168.947 66.294,169.910 66.183 C 170.487 66.117,170.529 66.041,170.529 65.051 C 170.529 64.005,171.131 63.481,172.610 63.244 C 172.702 63.229,172.778 63.875,172.778 64.679 M165.669 66.578 C 166.988 67.393,167.220 68.085,167.375 71.679 C 167.480 74.108,167.601 74.990,167.892 75.434 C 168.627 76.556,166.756 77.266,165.694 76.267 C 165.218 75.820,165.216 75.820,164.338 76.267 C 161.508 77.711,158.640 76.089,158.881 73.182 C 159.062 70.996,160.671 69.749,163.409 69.673 C 164.613 69.640,164.904 69.561,164.904 69.271 C 164.904 68.292,163.045 67.688,161.414 68.139 C 160.390 68.421,160.267 68.340,160.065 67.237 C 159.919 66.441,159.937 66.415,160.779 66.179 C 162.195 65.782,164.714 65.987,165.669 66.578 M183.412 66.378 C 184.053 66.676,184.059 66.755,183.557 68.098 C 183.382 68.567,183.338 68.575,182.693 68.253 C 181.292 67.554,179.491 68.239,180.113 69.235 C 180.248 69.452,181.139 70.020,182.093 70.499 C 186.300 72.612,185.275 76.715,180.540 76.715 C 177.954 76.715,177.238 76.209,177.829 74.796 C 178.191 73.930,178.318 73.881,178.952 74.360 C 179.530 74.798,181.411 74.795,181.775 74.356 C 182.349 73.664,181.850 72.933,180.254 72.130 C 177.701 70.844,176.911 69.623,177.492 67.862 C 178.052 66.166,181.235 65.368,183.412 66.378 M162.295 71.862 C 160.546 72.624,160.977 74.691,162.885 74.691 C 164.296 74.691,164.904 74.059,164.904 72.595 L 164.904 71.541 163.948 71.550 C 163.422 71.555,162.678 71.695,162.295 71.862 " stroke="none" fill="#fc0606" fill-rule="evenodd"></path><path id="path1" d="M192.801 69.291 L 192.801 76.490 193.588 76.490 L 194.376 76.490 194.376 70.510 C 194.376 66.385,194.450 64.554,194.615 64.609 C 194.747 64.653,196.199 67.319,197.842 70.533 L 200.829 76.378 201.933 76.378 L 203.037 76.378 203.037 69.291 L 203.037 62.205 202.193 62.135 L 201.350 62.065 201.350 67.465 C 201.350 70.435,201.260 72.920,201.149 72.988 C 201.039 73.056,199.698 70.633,198.169 67.604 L 195.388 62.096 194.094 62.094 L 192.801 62.092 192.801 69.291 M148.256 69.516 L 148.256 76.715 152.756 76.715 L 157.255 76.715 157.255 75.484 L 157.255 74.253 154.049 74.191 L 150.844 74.128 150.844 72.216 L 150.844 70.304 153.093 70.191 L 155.343 70.079 155.412 69.010 L 155.480 67.942 153.096 67.942 L 150.711 67.942 150.778 66.310 L 150.844 64.679 154.049 64.617 L 157.255 64.555 157.255 63.436 L 157.255 62.317 152.756 62.317 L 148.256 62.317 148.256 69.516 M171.485 63.631 C 170.546 63.984,170.529 64.010,170.529 65.051 C 170.529 66.041,170.487 66.117,169.910 66.183 C 168.947 66.294,168.836 68.098,169.785 68.207 L 170.416 68.279 170.529 71.654 C 170.650 75.303,170.797 75.819,171.874 76.376 C 172.748 76.828,175.544 76.840,175.915 76.394 C 176.306 75.923,176.134 74.332,175.703 74.431 C 173.197 75.005,172.891 74.638,172.891 71.055 L 172.891 68.279 174.297 68.212 L 175.703 68.145 175.703 67.143 L 175.703 66.142 174.241 66.142 L 172.778 66.142 172.778 64.679 C 172.778 63.875,172.702 63.229,172.610 63.244 C 172.517 63.259,172.011 63.433,171.485 63.631 M208.829 65.676 C 204.401 66.791,203.779 74.229,207.945 76.245 C 210.204 77.339,214.004 76.605,214.132 75.049 C 214.213 74.074,214.394 74.085,212.045 74.924 C 209.475 75.842,206.974 74.411,206.974 72.022 L 206.974 71.327 210.630 71.265 L 214.286 71.204 214.266 69.833 C 214.222 66.743,211.835 64.919,208.829 65.676 M218.785 65.566 C 218.661 65.616,218.079 65.721,217.492 65.800 L 216.423 65.944 216.423 66.857 C 216.423 67.698,216.462 67.757,216.929 67.615 C 220.273 66.598,222.212 66.993,222.337 68.715 L 222.385 69.377 220.344 69.634 C 217.055 70.050,215.662 71.156,215.662 73.354 C 215.662 76.288,218.531 77.764,221.198 76.201 C 222.444 75.471,222.497 75.464,222.497 76.040 C 222.497 76.417,222.647 76.490,223.418 76.490 L 224.338 76.490 224.261 72.160 C 224.177 67.383,224.013 66.813,222.508 66.035 C 221.898 65.720,219.238 65.385,218.785 65.566 M226.932 65.831 C 226.844 65.919,226.772 68.354,226.772 71.241 L 226.772 76.490 227.672 76.490 L 228.571 76.490 228.571 72.681 L 228.571 68.872 229.270 68.375 C 229.693 68.073,230.470 67.823,231.239 67.741 C 232.458 67.609,232.511 67.577,232.576 66.910 C 232.708 65.560,231.205 65.452,229.576 66.695 C 228.770 67.310,228.688 67.276,228.527 66.254 C 228.454 65.797,227.279 65.485,226.932 65.831 M160.779 66.179 C 159.937 66.415,159.919 66.441,160.065 67.237 C 160.267 68.340,160.390 68.421,161.414 68.139 C 163.045 67.688,164.904 68.292,164.904 69.271 C 164.904 69.561,164.613 69.640,163.409 69.673 C 160.671 69.749,159.062 70.996,158.881 73.182 C 158.640 76.089,161.508 77.711,164.338 76.267 C 165.216 75.820,165.218 75.820,165.694 76.267 C 166.756 77.266,168.627 76.556,167.892 75.434 C 167.601 74.990,167.480 74.108,167.375 71.679 C 167.220 68.085,166.988 67.393,165.669 66.578 C 164.714 65.987,162.195 65.782,160.779 66.179 M179.508 66.118 C 176.199 67.198,176.582 70.280,180.254 72.130 C 181.850 72.933,182.349 73.664,181.775 74.356 C 181.411 74.795,179.530 74.798,178.952 74.360 C 178.318 73.881,178.191 73.930,177.829 74.796 C 177.238 76.209,177.954 76.715,180.540 76.715 C 185.275 76.715,186.300 72.612,182.093 70.499 C 181.139 70.020,180.248 69.452,180.113 69.235 C 179.491 68.239,181.292 67.554,182.693 68.253 C 183.430 68.621,183.424 68.627,183.888 67.135 C 184.150 66.294,181.124 65.591,179.508 66.118 M211.549 67.311 C 212.004 67.550,212.598 68.794,212.598 69.509 C 212.598 69.944,212.463 69.966,209.786 69.966 C 206.771 69.966,206.734 69.950,207.173 68.800 C 207.807 67.134,209.872 66.432,211.549 67.311 M222.455 72.089 C 222.597 74.339,220.925 75.775,218.876 75.161 C 217.182 74.653,216.966 72.429,218.531 71.603 C 220.661 70.478,222.366 70.689,222.455 72.089 M164.904 72.595 C 164.904 74.059,164.296 74.691,162.885 74.691 C 161.694 74.691,161.305 74.407,161.305 73.539 C 161.305 72.193,162.137 71.567,163.948 71.550 L 164.904 71.541 164.904 72.595 " stroke="none" fill="#f6f2f4" fill-rule="evenodd"></path><path id="path2" d="M192.351 69.516 L 192.351 80.990 213.836 80.990 L 235.321 80.990 235.321 69.516 L 235.321 58.043 213.836 58.043 L 192.351 58.043 192.351 69.516 M198.376 67.548 L 201.123 73.003 201.124 67.548 L 201.125 62.092 202.253 62.092 L 203.381 62.092 203.321 69.348 L 203.262 76.603 202.012 76.669 L 200.761 76.735 198.315 71.945 C 196.969 69.310,195.639 66.699,195.359 66.142 L 194.849 65.129 194.837 70.567 C 194.824 76.925,194.867 76.715,193.564 76.715 L 192.576 76.715 192.576 69.404 L 192.576 62.092 194.103 62.092 L 195.630 62.092 198.376 67.548 M212.437 65.887 C 213.607 66.610,214.198 67.604,214.459 69.287 C 214.823 71.642,214.987 71.541,210.806 71.541 C 206.768 71.541,206.808 71.520,207.509 73.198 C 208.261 74.998,210.912 75.553,213.015 74.350 C 214.352 73.586,214.431 73.623,214.354 74.960 L 214.286 76.128 212.936 76.531 C 207.710 78.092,204.022 74.790,205.145 69.557 C 205.900 66.035,209.635 64.155,212.437 65.887 M222.635 65.870 C 224.157 66.650,224.297 67.191,224.297 72.306 L 224.297 76.715 223.285 76.715 C 222.535 76.715,222.272 76.628,222.272 76.378 C 222.272 75.946,222.306 75.941,220.888 76.601 C 217.577 78.142,214.578 75.425,215.732 71.928 C 216.188 70.547,218.882 69.291,221.390 69.291 C 222.378 69.291,222.548 68.886,221.931 68.005 C 221.362 67.192,218.671 67.127,216.710 67.880 C 216.327 68.026,216.314 66.011,216.697 65.774 C 217.766 65.113,221.269 65.170,222.635 65.870 M228.756 66.335 L 228.829 67.090 229.319 66.648 C 230.996 65.135,232.922 65.269,232.801 66.891 L 232.733 67.791 231.609 67.834 C 230.909 67.861,230.165 68.068,229.640 68.382 L 228.796 68.886 228.796 72.801 L 228.796 76.715 227.672 76.715 L 226.547 76.715 226.547 71.222 C 226.547 65.235,226.494 65.457,227.897 65.535 C 228.615 65.575,228.690 65.645,228.756 66.335 M208.735 67.408 C 207.973 67.724,207.199 68.775,207.199 69.494 C 207.199 69.659,208.056 69.741,209.786 69.741 C 212.611 69.741,212.590 69.753,212.118 68.401 C 211.695 67.186,210.274 66.769,208.735 67.408 M220.135 71.338 C 216.997 71.786,216.549 74.916,219.624 74.916 C 221.556 74.916,222.269 74.264,222.271 72.497 C 222.272 70.917,222.442 71.009,220.135 71.338 " stroke="none" fill="#0c3c74" fill-rule="evenodd"></path><path id="path3" d="M247.244 69.404 L 247.244 76.940 250.394 76.940 C 252.126 76.940,253.543 76.851,253.543 76.741 C 253.543 76.631,253.981 76.476,254.516 76.396 C 255.597 76.234,257.143 74.829,257.143 74.008 C 257.143 73.765,257.244 73.566,257.368 73.566 C 257.697 73.566,257.648 70.691,257.312 70.269 C 257.157 70.074,256.681 69.554,256.253 69.112 C 255.783 68.627,255.583 68.274,255.747 68.219 C 255.896 68.170,256.018 68.022,256.018 67.891 C 256.018 67.761,256.195 67.524,256.412 67.366 C 257.611 66.489,256.496 62.317,255.063 62.317 C 254.846 62.317,254.668 62.216,254.668 62.092 C 254.668 61.951,253.281 61.867,250.956 61.867 L 247.244 61.867 247.244 69.404 M253.864 64.553 C 255.265 65.716,253.971 67.461,251.575 67.643 L 249.719 67.783 249.719 65.922 L 249.719 64.061 251.615 64.160 C 252.702 64.217,253.661 64.385,253.864 64.553 M257.593 65.609 C 257.593 66.002,258.135 67.492,258.278 67.492 C 258.369 67.492,258.512 67.871,258.597 68.335 C 258.682 68.799,258.881 69.381,259.040 69.629 C 259.199 69.876,259.504 70.686,259.719 71.429 C 259.934 72.171,260.187 72.880,260.281 73.003 C 260.375 73.127,260.590 73.709,260.759 74.297 C 260.928 74.885,261.145 75.366,261.241 75.366 C 261.338 75.366,261.417 75.669,261.417 76.040 C 261.417 76.412,261.316 76.715,261.191 76.715 C 261.067 76.715,260.844 77.171,260.695 77.728 C 260.546 78.285,260.349 78.740,260.256 78.740 C 260.086 78.740,259.621 80.184,259.619 80.720 C 259.618 80.933,259.961 80.994,260.893 80.945 L 262.169 80.877 262.614 79.528 C 262.859 78.785,263.133 78.127,263.223 78.065 C 263.312 78.003,263.462 77.598,263.556 77.165 C 263.650 76.732,263.916 76.025,264.147 75.595 C 264.377 75.164,264.628 74.480,264.704 74.076 C 264.780 73.672,264.919 73.341,265.013 73.341 C 265.107 73.341,265.315 72.860,265.477 72.272 C 265.638 71.684,265.892 71.001,266.040 70.754 C 266.189 70.506,266.446 69.823,266.613 69.235 C 266.779 68.647,266.982 68.166,267.064 68.166 C 267.226 68.166,267.717 66.392,267.717 65.805 C 267.717 65.161,265.376 65.430,265.282 66.085 C 265.243 66.364,265.132 66.592,265.037 66.592 C 264.942 66.592,264.739 67.148,264.587 67.829 C 264.434 68.510,264.240 69.066,264.154 69.066 C 264.069 69.066,263.811 69.722,263.582 70.523 C 263.055 72.362,262.653 72.764,262.446 71.659 C 262.364 71.223,262.207 70.866,262.098 70.866 C 261.989 70.866,261.775 70.309,261.623 69.629 C 261.470 68.948,261.279 68.391,261.197 68.391 C 261.116 68.391,260.911 67.885,260.742 67.267 C 260.574 66.648,260.353 66.142,260.252 66.142 C 260.150 66.142,260.067 65.990,260.067 65.804 C 260.067 65.545,259.780 65.467,258.830 65.467 C 258.150 65.467,257.593 65.531,257.593 65.609 M239.370 70.191 L 239.370 71.316 242.407 71.316 L 245.444 71.316 245.444 70.191 L 245.444 69.066 242.407 69.066 L 239.370 69.066 239.370 70.191 M253.597 70.202 C 255.146 70.633,255.515 72.698,254.245 73.832 C 253.586 74.421,253.403 74.466,251.627 74.466 L 249.719 74.466 249.719 72.216 L 249.719 69.966 251.237 69.968 C 252.073 69.968,253.134 70.074,253.597 70.202 " stroke="none" fill="#040404" fill-rule="evenodd"></path><path id="path4" d="M192.629 69.348 L 192.576 76.715 193.564 76.715 C 194.867 76.715,194.824 76.924,194.833 70.567 L 194.840 65.129 196.319 68.054 C 197.132 69.663,197.898 71.080,198.021 71.204 C 198.145 71.327,197.475 69.885,196.534 67.998 C 195.593 66.111,194.722 64.567,194.599 64.567 C 194.457 64.567,194.376 66.729,194.376 70.529 L 194.376 76.490 193.591 76.490 L 192.807 76.490 192.745 69.235 L 192.682 61.980 192.629 69.348 M195.501 62.170 C 195.501 62.400,198.862 69.066,198.978 69.066 C 199.120 69.066,198.735 68.234,197.109 65.017 C 195.696 62.223,195.501 61.877,195.501 62.170 M201.125 67.537 C 201.063 70.593,201.090 73.016,201.185 72.921 C 201.280 72.826,201.331 70.325,201.297 67.364 L 201.237 61.980 201.125 67.537 M203.037 69.235 L 203.037 76.378 201.978 76.446 L 200.918 76.514 200.220 75.130 C 199.835 74.368,199.476 73.790,199.421 73.845 C 199.366 73.900,199.645 74.573,200.041 75.340 L 200.760 76.735 202.011 76.669 L 203.262 76.603 203.321 69.348 C 203.354 65.357,203.303 62.092,203.209 62.092 C 203.114 62.092,203.037 65.306,203.037 69.235 M208.449 65.578 C 207.362 65.965,206.568 66.541,206.110 67.274 C 205.841 67.704,205.934 67.661,206.524 67.082 C 207.981 65.650,210.633 65.088,212.119 65.897 C 212.418 66.059,212.588 66.081,212.505 65.948 C 212.098 65.289,209.839 65.083,208.449 65.578 M217.714 65.445 C 217.249 65.542,216.793 65.697,216.702 65.789 C 216.610 65.881,216.940 65.874,217.435 65.772 C 220.103 65.224,222.744 65.730,223.538 66.941 C 223.985 67.623,224.227 67.515,223.806 66.820 C 223.086 65.629,220.077 64.950,217.714 65.445 M226.828 65.610 C 226.614 65.701,226.547 67.041,226.547 71.222 L 226.547 76.715 227.672 76.715 L 228.796 76.715 228.796 72.784 L 228.796 68.853 229.492 68.493 C 229.875 68.295,230.134 68.079,230.068 68.013 C 230.001 67.947,229.638 68.113,229.259 68.382 L 228.571 68.872 228.571 72.681 L 228.571 76.490 227.667 76.490 L 226.764 76.490 226.824 71.147 L 226.884 65.804 227.669 65.804 C 228.362 65.804,228.468 65.882,228.569 66.466 C 228.709 67.273,228.749 67.281,229.589 66.655 C 229.957 66.381,230.148 66.153,230.012 66.149 C 229.877 66.145,229.573 66.356,229.337 66.618 L 228.909 67.093 228.796 66.336 C 228.683 65.575,227.737 65.226,226.828 65.610 M231.271 65.715 C 231.005 65.905,231.050 65.930,231.484 65.833 C 232.477 65.612,233.076 66.919,232.340 67.700 C 232.113 67.940,232.124 67.978,232.396 67.896 C 232.821 67.768,232.975 66.231,232.608 65.789 C 232.293 65.409,231.742 65.378,231.271 65.715 M208.225 67.386 C 207.672 67.804,207.844 67.805,208.804 67.388 C 209.328 67.160,209.423 67.059,209.111 67.058 C 208.864 67.057,208.465 67.205,208.225 67.386 M211.162 67.364 C 211.615 67.562,211.953 67.928,212.118 68.401 C 212.590 69.753,212.610 69.741,209.786 69.741 C 206.975 69.741,206.925 69.714,207.551 68.504 C 207.861 67.904,207.861 67.867,207.554 68.169 C 207.365 68.357,207.144 68.838,207.064 69.238 L 206.918 69.966 209.758 69.966 C 212.463 69.966,212.598 69.945,212.598 69.509 C 212.598 68.321,211.627 67.025,210.757 67.050 C 210.594 67.055,210.777 67.197,211.162 67.364 M213.728 67.478 C 213.883 67.781,214.098 68.287,214.204 68.603 C 214.365 69.080,214.378 69.043,214.281 68.394 C 214.216 67.963,214.002 67.457,213.804 67.270 C 213.478 66.960,213.471 66.979,213.728 67.478 M218.043 67.264 C 216.962 67.519,216.822 67.791,217.885 67.568 C 219.652 67.197,221.392 67.354,221.855 67.925 C 222.084 68.209,222.272 68.336,222.272 68.208 C 222.272 67.275,220.070 66.783,218.043 67.264 M205.355 68.560 C 204.228 71.264,205.575 75.599,207.795 76.415 C 208.024 76.499,207.765 76.222,207.219 75.798 C 205.421 74.403,204.739 71.809,205.464 69.123 C 205.812 67.836,205.763 67.583,205.355 68.560 M222.290 68.898 C 222.276 69.212,222.058 69.295,221.204 69.307 C 220.616 69.316,219.933 69.411,219.685 69.517 C 219.406 69.638,219.789 69.664,220.697 69.585 C 222.256 69.450,222.620 69.286,222.428 68.805 C 222.347 68.601,222.302 68.632,222.290 68.898 M199.100 69.402 C 199.100 69.607,199.772 70.866,199.882 70.866 C 200.044 70.866,199.517 69.523,199.303 69.390 C 199.191 69.321,199.100 69.326,199.100 69.402 M214.387 70.304 L 214.286 71.204 210.630 71.265 L 206.974 71.327 206.974 72.022 C 206.974 72.824,207.780 74.381,208.298 74.580 C 208.535 74.671,208.492 74.546,208.165 74.197 C 207.625 73.621,207.199 72.641,207.199 71.976 C 207.199 71.564,207.390 71.541,210.806 71.541 C 214.762 71.541,214.727 71.554,214.571 70.156 L 214.487 69.404 214.387 70.304 M217.067 70.430 L 216.535 70.893 217.210 70.498 C 218.099 69.977,218.112 69.966,217.835 69.966 C 217.705 69.966,217.359 70.175,217.067 70.430 M215.991 71.282 C 215.624 71.969,215.700 72.160,216.108 71.577 C 216.307 71.294,216.416 71.009,216.352 70.945 C 216.287 70.880,216.125 71.032,215.991 71.282 M220.083 71.073 C 219.559 71.161,219.053 71.314,218.958 71.413 C 218.863 71.512,219.089 71.538,219.460 71.469 C 219.831 71.401,220.611 71.282,221.193 71.206 L 222.250 71.067 222.336 72.485 L 222.423 73.903 222.404 72.441 L 222.385 70.979 221.710 70.946 C 221.339 70.927,220.606 70.985,220.083 71.073 M200.256 71.759 C 200.387 72.134,200.581 72.496,200.688 72.562 C 200.795 72.627,200.775 72.374,200.644 71.998 C 200.513 71.623,200.318 71.261,200.212 71.195 C 200.105 71.130,200.125 71.383,200.256 71.759 M198.200 71.651 C 198.200 71.857,198.872 73.116,198.982 73.116 C 199.144 73.116,198.617 71.772,198.403 71.640 C 198.291 71.571,198.200 71.576,198.200 71.651 M217.998 71.991 C 217.750 72.238,217.548 72.559,217.548 72.703 C 217.548 72.848,217.573 72.924,217.604 72.872 C 217.635 72.821,217.906 72.500,218.206 72.160 C 218.833 71.449,218.671 71.318,217.998 71.991 M212.936 74.371 C 211.985 74.939,212.087 75.128,213.048 74.578 C 213.942 74.067,214.173 74.162,214.173 75.039 C 214.173 75.724,214.070 75.882,213.442 76.155 C 212.618 76.513,212.931 76.609,213.821 76.271 C 214.335 76.076,214.398 75.928,214.398 74.921 C 214.398 73.625,214.267 73.576,212.936 74.371 M215.630 74.466 C 215.709 74.947,216.038 75.515,216.478 75.928 C 217.060 76.474,217.098 76.489,216.678 76.006 C 216.393 75.677,216.012 75.019,215.831 74.543 L 215.502 73.678 215.630 74.466 M217.749 74.402 C 218.081 75.048,219.483 75.480,220.247 75.171 C 220.735 74.974,220.655 74.942,219.638 74.930 C 218.728 74.919,218.356 74.802,217.979 74.409 L 217.492 73.903 217.749 74.402 M208.908 74.952 C 209.081 75.229,210.681 75.373,211.361 75.174 C 211.934 75.006,211.792 74.963,210.426 74.889 C 209.540 74.842,208.857 74.870,208.908 74.952 M221.161 76.210 C 220.414 76.660,219.862 76.812,218.976 76.812 C 218.323 76.812,217.912 76.890,218.062 76.985 C 218.576 77.312,219.685 77.161,220.888 76.601 C 222.306 75.941,222.272 75.946,222.272 76.378 C 222.272 76.636,222.523 76.706,223.341 76.676 L 224.409 76.637 223.453 76.551 C 222.686 76.482,222.497 76.378,222.497 76.028 C 222.497 75.466,222.367 75.483,221.161 76.210 M209.613 76.878 C 210.012 76.927,210.721 76.928,211.187 76.880 C 211.654 76.831,211.327 76.790,210.461 76.789 C 209.595 76.788,209.213 76.828,209.613 76.878 " stroke="none" fill="#6c7c9c" fill-rule="evenodd"></path></g></svg>